<svg width="789" height="300" viewBox="0 0 789 300" fill="none" xmlns="http://www.w3.org/2000/svg">
<path d="M0 47.9631C0 21.4738 21.4738 0 47.9631 0H251.806C278.296 0 299.769 21.4738 299.769 47.9631V251.806C299.769 278.296 278.296 299.769 251.806 299.769H15.9877C7.15792 299.769 0 292.612 0 283.782V47.9631Z" fill="#006AFF"/>
<path d="M92.4292 216.833C97.6719 216.833 101.922 212.583 101.922 207.34C101.922 202.098 97.6719 197.848 92.4292 197.848C87.1865 197.848 82.9365 202.098 82.9365 207.34C82.9365 212.583 87.1865 216.833 92.4292 216.833Z" fill="white"/>
<path d="M206.342 102.921C211.584 102.921 215.834 98.6712 215.834 93.4285C215.834 88.1859 211.584 83.9359 206.342 83.9359C201.099 83.9359 196.849 88.1859 196.849 93.4285C196.849 98.6712 201.099 102.921 206.342 102.921Z" fill="white"/>
<path d="M185.49 216.094C172.594 218.593 159.964 214.661 151.014 205.712C143.843 198.54 139.893 189.005 139.893 178.862V122.13C139.893 111.476 131.219 102.734 120.566 102.924C110.255 103.107 101.922 111.552 101.922 121.906V178.852C101.922 178.852 101.917 178.862 101.912 178.862H82.9469C82.9469 178.862 82.9365 178.858 82.9365 178.852V121.906C82.9365 111.764 86.8864 102.229 94.0578 95.0571C103.008 86.1088 115.637 82.1753 128.534 84.6745C133.292 85.5971 137.825 87.4734 141.842 90.1862C152.729 97.5385 158.88 109.25 158.88 121.906V178.638C158.88 189.292 167.554 198.034 178.206 197.845C188.859 197.655 196.85 189.217 196.85 178.862V122.506C196.85 122.506 196.855 122.495 196.861 122.495H215.824C215.824 122.495 215.834 122.5 215.834 122.506V178.862C215.834 191.519 209.683 203.23 198.796 210.583C194.78 213.295 190.247 215.172 185.489 216.094H185.49Z" fill="white"/>
<path d="M82.9365 168.179H101.922V178.862C101.922 184.101 97.668 188.355 92.4292 188.355C87.1904 188.355 82.9365 184.101 82.9365 178.862V168.179Z" fill="white"/>
<path d="M215.834 132.555H196.849V121.871C196.849 116.632 201.103 112.378 206.342 112.378C211.58 112.378 215.834 116.632 215.834 121.871V132.555Z" fill="white"/>
<path d="M722.539 148.109C722.539 144.487 723.436 141.199 725.231 138.247C727.071 135.295 729.494 132.947 732.501 131.203C735.552 129.459 738.917 128.587 742.597 128.587H783.521V142.742H742.597C740.982 142.742 739.591 143.279 738.424 144.352C737.302 145.381 736.741 146.633 736.741 148.109V149.787C736.741 151.307 737.302 152.604 738.424 153.678C739.591 154.751 740.982 155.288 742.597 155.288H768.04C771.719 155.288 775.062 156.182 778.069 157.971C781.12 159.716 783.543 162.064 785.338 165.015C787.133 167.967 788.03 171.255 788.03 174.877V178.5C788.03 182.078 787.133 185.366 785.338 188.362C783.543 191.314 781.12 193.684 778.069 195.473C775.062 197.218 771.719 198.09 768.04 198.09H725.703V183.934H768.04C769.655 183.934 771.024 183.398 772.146 182.324C773.312 181.251 773.896 179.954 773.896 178.433V174.945C773.896 173.379 773.312 172.06 772.146 170.986C771.024 169.913 769.655 169.376 768.04 169.376H742.597C738.917 169.376 735.552 168.504 732.501 166.76C729.494 164.971 727.071 162.6 725.231 159.648C723.436 156.652 722.539 153.365 722.539 149.787V148.109Z" fill="#006AFF"/>
<path d="M644.639 128.587H658.849V172.798C658.849 175.928 659.926 178.59 662.081 180.781C664.236 182.973 666.818 184.069 669.826 184.069H694.542V128.587H708.751V184.001C708.751 187.893 707.36 191.225 704.576 193.998C701.792 196.726 698.403 198.09 694.407 198.09H669.826C665.201 198.09 660.981 196.972 657.165 194.736C653.349 192.455 650.296 189.413 648.006 185.612C645.761 181.81 644.639 177.606 644.639 172.999V128.587Z" fill="#006AFF"/>
<path d="M595.003 148.042C595.003 144.464 595.907 141.199 597.714 138.247C599.566 135.295 602.006 132.947 605.032 131.203C608.104 129.459 611.493 128.587 615.197 128.587H630.851V142.675H615.197C613.571 142.675 612.17 143.234 610.996 144.352C609.866 145.426 609.302 146.745 609.302 148.311V198.09H595.003V148.042Z" fill="#006AFF"/>
<path d="M536.406 128.402H545.502V102.437H559.72V128.402H581.215V142.595H559.72V178.314C559.72 179.838 560.304 181.161 561.472 182.282C562.685 183.359 564.123 183.897 565.785 183.897H581.215V198.09H565.583C561.899 198.09 558.53 197.215 555.475 195.467C552.465 193.673 550.039 191.296 548.198 188.336C546.401 185.332 545.502 182.013 545.502 178.381V142.595H536.406V128.402Z" fill="#006AFF"/>
<path d="M466.088 153.678C466.088 149.071 467.209 144.867 469.45 141.065C471.737 137.263 474.785 134.244 478.595 132.008C482.405 129.727 486.619 128.587 491.236 128.587H506.432C511.049 128.587 515.263 129.727 519.073 132.008C522.884 134.244 525.909 137.263 528.151 141.065C530.437 144.867 531.58 149.071 531.58 153.678V172.999C531.58 177.606 530.437 181.81 528.151 185.612C525.909 189.413 522.884 192.455 519.073 194.736C515.263 196.972 511.049 198.09 506.432 198.09H491.236C486.619 198.09 482.405 196.972 478.595 194.736C474.785 192.455 471.737 189.413 469.45 185.612C467.209 181.81 466.088 177.606 466.088 172.999V153.678ZM480.276 172.865C480.276 175.906 481.352 178.523 483.504 180.714C485.655 182.861 488.233 183.934 491.236 183.934H506.432C509.48 183.934 512.058 182.861 514.165 180.714C516.316 178.523 517.392 175.906 517.392 172.865V153.812C517.392 150.77 516.316 148.176 514.165 146.03C512.058 143.838 509.48 142.742 506.432 142.742H491.236C488.233 142.742 485.655 143.838 483.504 146.03C481.352 148.176 480.276 150.77 480.276 153.812V172.865Z" fill="#006AFF"/>
<path d="M445.183 102.194C449.001 102.194 452.097 105.285 452.097 109.097V170.864C452.097 180.02 447.639 188.492 439.75 193.81C436.839 195.773 433.554 197.13 430.106 197.798H430.107C420.761 199.606 411.608 196.761 405.122 190.287C399.925 185.099 397.063 178.201 397.063 170.864V129.825C397.063 122.118 390.777 115.794 383.057 115.931C375.584 116.063 369.546 122.172 369.546 129.663V170.238H369.615V191.431C369.615 195.243 366.52 198.333 362.701 198.333C358.883 198.332 355.787 195.242 355.787 191.431V129.663C355.787 122.326 358.649 115.428 363.846 110.24C370.332 103.767 379.485 100.921 388.831 102.729C392.279 103.397 395.564 104.754 398.475 106.716C406.365 112.035 410.823 120.507 410.823 129.663V170.702C410.823 178.409 417.109 184.734 424.828 184.596C432.548 184.459 438.339 178.355 438.339 170.864L438.339 130.289H438.269V109.097C438.269 105.285 441.364 102.194 445.183 102.194Z" fill="#006AFF"/>
</svg>
